<?xml version="1.0" encoding="utf-8"?>
<!-- Generator: Adobe Illustrator 19.1.0, SVG Export Plug-In . SVG Version: 6.00 Build 0)  -->
<svg version="1.0" id="Layer_1" xmlns="http://www.w3.org/2000/svg" xmlns:xlink="http://www.w3.org/1999/xlink" x="0px" y="0px"
	 viewBox="-76.8 371.8 908.8 100.3" style="enable-background:new -76.8 371.8 908.8 100.3;" xml:space="preserve">
<style type="text/css">
	.st0{fill:#F27031;}
	.st1{fill:#FFFFFF;}
</style>
<polygon class="st0" points="-16.9,448.1 -16.9,412.6 -9.5,412.6 -9.5,448.1 "/>
<polygon class="st0" points="-57.3,448.1 -57.3,412.6 -50.1,412.6 -50.1,448.1 "/>
<polygon class="st0" points="-47.5,448.1 -47.5,412.6 -39.9,412.6 -39.9,448.1 "/>
<polygon class="st0" points="-37.3,448.1 -37.3,412.6 -29.7,412.6 -29.7,448.1 "/>
<polygon class="st0" points="-19.5,412.6 -19.5,448.1 -27.1,448.1 -27.1,412.6 "/>
<polygon class="st0" points="-12.7,410 -54.3,410 -32.9,396.8 "/>
<polygon class="st0" points="-59.1,410 -76.8,410 -76.8,396.8 -37.5,396.8 "/>
<polygon class="st0" points="-28.5,396.8 9.9,396.8 9.9,410 -8.1,410 "/>
<path class="st0" d="M4.3,394.2h-75.7c7.4-13.4,21.6-22.4,37.8-22.4C-17.3,371.8-3.1,380.8,4.3,394.2L4.3,394.2z"/>
<path class="st0" d="M-71.1,437.9l-0.6,2l1.6-1.2l1.6,1.2l-0.6-2l1.6-1.2h-2l-0.6-2l-0.6,2h-2L-71.1,437.9L-71.1,437.9z
	 M-76.8,426.6l1.8,1.2l-0.6,2l1.6-1.2l1.6,1.2l-0.6-2l1.6-1.2h-2l-0.6-2l-0.6,2H-76.8L-76.8,426.6z M-59.9,448.1h-2.2l-0.6-2
	l1.6-1.2h-2l-0.6-2l-0.6,2h-2l1.8,1.2l-0.6,2h-11.8v-21.4V419l1.6-1.2l1.6,1.2l-0.6-2l1.6-1.2h-2l-0.6-2l-0.2,1l-0.4,1h-1v-3.2h17
	V448.1L-59.9,448.1z M-62.1,448.1h-3.4l1.6-1.2L-62.1,448.1L-62.1,448.1z M-76.8,418.6v-2l0.4,0.4l-0.4,1.2V418.6L-76.8,418.6z"/>
<polygon class="st0" points="-59.9,450.5 -59.9,460.1 -76.8,460.1 -76.8,450.5 "/>
<polygon class="st0" points="-6.9,450.5 9.9,450.5 9.9,460.1 -6.9,460.1 "/>
<path class="st0" d="M-21.9,457.3l1.8-1.2h-2l-0.6-2l-0.6,2h-2l1.6,1.2l-0.6,2l1.6-1.2l1.6,1.2L-21.9,457.3L-21.9,457.3z
	 M-34.5,458.5l-0.4,1.4h-22.4v-9.4h2.8l-0.4,1.4h-2l1.8,1.2l-0.6,2l1.6-1.2l1.6,1.2l-0.6-2l1.6-1.2h-2l-0.4-1.4h41.6l-0.4,1.4h-2
	l1.6,1.2l-0.6,2l1.6-1.2l1.6,1.2l-0.6-2l1.8-1.2h-2l-0.4-1.4h2.8v9.4h-22.4l-0.4-1.4l1.6-1.2h-2l-0.6-2l-0.6,2h-2L-34.5,458.5
	L-34.5,458.5z M-45.3,457.3l-0.6,2l1.6-1.2l1.6,1.2l-0.6-2l1.6-1.2h-2l-0.6-2l-0.6,2h-2L-45.3,457.3L-45.3,457.3z M-32.5,460.1h-2
	l1-0.6L-32.5,460.1L-32.5,460.1z"/>
<path class="st0" d="M4.1,437.9l1.8-1.2h-2l-0.6-2l-0.6,2h-2l1.6,1.2l-0.6,2l1.6-1.2l1.6,1.2L4.1,437.9L4.1,437.9z M-1.3,448.1
	l-0.6-2l1.8-1.2h-2l-0.6-2l-0.6,2h-2l1.6,1.2l-0.6,2l1.6-1.2L-1.3,448.1L-1.3,448.1L-1.3,448.1z M9.9,448.1H-1.3h-3.4h-2.2v-35.6
	H9.9v3.2H9.1l-0.6-2l-0.6,2h-2l1.6,1.2l-0.6,2l1.6-1.2l1.4,1v7.8h-2l-0.6-2l-0.6,2h-2l1.6,1.2l-0.6,2l1.6-1.2l1.6,1.2l-0.6-2
	l1.6-1.2V448.1L9.9,448.1z M9.9,416.8v1.6L9.5,417L9.9,416.8L9.9,416.8z"/>
<path class="st1" d="M460.5,453.9c-3.6,0-6.8-3.6-6.8-8.6c0-8.4,6.2-19.6,15.2-19.6c4.4,0,7,3.2,7,7.8
	C475.9,440.7,470.1,453.9,460.5,453.9L460.5,453.9z M459.5,450.7c6.8,0,13.8-14,13.8-18.4c0-2-1.2-3.8-3.4-3.8
	c-2.8,0-6.2,2.6-9.6,7.8c-2.2,3.6-3.8,7.6-3.8,10.8C456.3,449.5,457.9,450.7,459.5,450.7L459.5,450.7z"/>
<path class="st1" d="M483.3,429.4h-6c-0.4,0-0.4-0.4-0.4-0.8l0.2-1.2c0.2-0.4,0.6-1.6,1.2-1.6h5.8c2-5.8,4-10.4,7.4-14.2
	c1.8-2.2,5.6-4.6,9.8-4.6c3.8,0,6,2.4,6,4c0,2-1.4,3-2.6,3c-2.2,0-2.8-1.2-3-2.6c0-0.6-0.8-2-2.8-2c-6.2,0-7.4,8.8-9.6,16.2h3.8v3.6
	h-5.4c-1.8,5.4-4.8,16.8-8,25.2c-4,10.4-8.8,17.8-15.8,17.8c-2.6,0-4.8-1.8-4.8-4c0-1.6,1.2-2.8,2.8-2.8c2,0,3,1.8,3.2,3
	c0.2,0.6,0.6,1.2,1.2,1.2c3.2,0,6.8-5.6,10.4-17.8L483.3,429.4L483.3,429.4z"/>
<path class="st1" d="M502.5,397.2c3.2,0,7.6,0.2,11.6,0.2c8.2,0,12.4-0.2,13.4-0.2c0.8,0,1,0.2,1,0.6v2.2c0,0.4,0,0.8-0.8,0.8h-4.6
	c-2.8,0-4,0.8-4,2.6c0,0.8,0,2,0.4,3.2c0.6,3.4,4.2,15,5.8,20.4c1.2,3.6,6.8,20.2,9,26.2c2.2-4.6,9.8-24.4,10.6-26.6
	c1-2.6,4.6-13.6,6-18c0.8-2.4,1.4-4.2,1.4-5.4c0-1.2-0.6-2.2-3-2.2h-2.6c-0.4,0-0.4-0.2-0.4-0.8v-2.4c0-0.4,0-0.6,0.6-0.6
	c0.8,0,5.4,0.2,11.4,0.2c7,0,9.4-0.2,10.4-0.2c0.6,0,0.6,0.2,0.6,0.6v2.4c0,0.4,0,0.6-0.6,0.6H566c-3.2,0-5,1.6-6.8,3.8
	c-2.6,3-10.2,22.8-11.8,27c-1.2,3.2-13.6,33.8-14,34.8c-0.4,0.8-0.8,1.2-1.4,1.2c-0.8,0-1.2-1-1.6-2.2c-3-8.8-10.8-30.8-12.2-34.4
	l-1.6-3.2c-2.4-6.8-6.8-20.8-8.2-23.8c-1-2.2-2-3.2-4-3.2h-2.2L502.5,397.2L502.5,397.2z"/>
<path class="st1" d="M59.6,462.3c-5,0-9.8-0.6-13-2c-6.6-2.6-10-6.8-11.4-13c-1.2-4.4-1.6-10.8-1.6-23.4v-23c0-3.4-0.6-5-3.6-5h-4.6
	c-0.6,0-0.6-0.2-0.6-0.8V393c0-0.6,0-0.8,0.8-0.8c1,0,5.6,0.2,13.2,0.2s12.2-0.2,13.2-0.2c0.8,0,0.8,0.2,0.8,0.6v2.6
	c0,0.4,0,0.6-0.8,0.6h-4.8c-2.8,0-4.4,1.8-4.6,4c0,0.8-0.2,7.6-0.2,12.6v6.4c0,5.2,0.4,17.4,0.4,20.4c0,4.4,0.8,9,3,12.2
	c3.6,5.2,9.8,7,15.4,7c5.4,0,11-1.8,14.4-5.4c3.8-4,5-9.8,5-17v-20.4c0-7.4-0.2-13-0.4-15.4c-0.2-2.6-1.8-4.2-4.4-4.2h-4.2
	c-0.6,0-0.6-0.2-0.6-0.8V393c0-0.4,0-0.6,0.6-0.6c1,0,5.4,0.2,11.8,0.2c6.6,0,9.8-0.2,10.6-0.2s1,0.4,1,0.6v2.2c0,0.6,0,1-0.6,1h-4
	c-3.6,0-3.8,2.8-4.2,3.8c-0.2,1-0.2,14.6-0.2,16s-0.2,18.2-0.4,22c-0.6,8-2.8,14-8.2,18.6C74,460.1,68,462.3,59.6,462.3L59.6,462.3z
	"/>
<path class="st1" d="M137,429c0-4.4-0.2-11,0.4-15.8c0.2-1.4,0.8-2.2,3.4-2.2h1c0.4,0,0.6-0.4,0.6-0.8V408c0-0.6-0.2-0.8-0.8-0.8
	c-0.8,0-4.4,0.4-6.6,0.4c-3.4,0-7.8-0.4-8.6-0.4c-0.6,0-0.8,0.2-0.8,0.6v2.6c0,0.6,0.2,0.8,0.8,0.8h1.8c1.8,0,3.4,0.6,3.8,1.8
	c0.6,1.2,0.8,7.4,0.8,9.8c0.2,3.4,0.4,6.6,0.4,12.6v7h-0.4c-1.2-1.4-11-13.6-13-15.8c-2.2-2.6-14.2-17.8-14.6-18.2
	c-0.4-0.6-1-0.8-2.6-0.8c-1.2,0-3.4,0.2-5.2,0.2c-1.2,0-2.8-0.2-4.2-0.2c-1.4,0-2.6-0.2-2.8-0.2c-0.4,0-0.6,0.4-0.6,0.6v2.6
	c0,0.4,0.2,0.6,0.6,0.6h1c3,0,5.6,1.8,5.6,5.6v11c0,11.8-0.2,19.4-0.4,20.6c-0.4,2.4-2,3.2-3,3.2h-2.4c-0.4,0-0.4,0.2-0.4,0.4v2.8
	c0,0.6,0.2,0.8,0.4,0.8c0.8,0,5.6-0.4,7-0.4c3,0,7.2,0.4,8,0.4c0.6,0,0.6-0.2,0.6-0.6v-2.6c0-0.4,0-0.6-0.6-0.6H104
	c-1,0-2.2-1.2-2.6-3.6c-0.2-1-0.6-11.4-0.6-17.8V416h0.2c1.6,1.8,10.2,13.2,12.8,16.2c1.2,1.4,5.6,6.8,10.6,12.6
	c4.4,5.2,7.8,9.4,8.6,10.2c0.4,0.4,1.4,1,2.4,1c1.2,0,1.6-1,1.6-2V429L137,429z"/>
<path class="st1" d="M159.8,428c0-0.8,0.2-13.2,0.2-14.2c0.2-2.2,1-2.6,3.8-2.6h1.8c0.6,0,0.6-0.4,0.6-0.8v-2.6
	c0-0.4-0.2-0.6-0.6-0.6c-0.8,0-6.2,0.4-9.2,0.4c-5,0.2-11.4-0.4-12-0.4c-0.4,0-0.6,0.2-0.6,0.6v2.4c0,0.4,0.2,0.8,0.6,0.8h1.8
	c4.4,0,5.4,1,5.4,2.2c0,1.4,0.2,12,0.2,13.6v4.6c0,3.6-0.2,17-0.2,17.8c-0.2,1.8-1.8,2-4.6,2h-2.4c-0.4,0-0.6,0.4-0.6,0.6v2.4
	c0,0.6,0.2,0.8,0.6,0.8c0.6,0,6.8-0.4,10.2-0.4c4.8,0,10.2,0.4,11,0.4c0.6,0,0.6-0.4,0.6-0.8v-2.4c0-0.4-0.2-0.6-0.6-0.6h-1.6
	c-3,0-4.4-1.4-4.6-3.8c-0.2-1.6-0.2-13.6-0.2-14.2V428H159.8z"/>
<path class="st1" d="M264.7,430.8c-0.2,6.4,0,12.6-0.2,17.8c0,2.4-1.2,2.8-3.8,2.8h-1.2c-0.4,0-0.6,0.2-0.6,0.6v2.4
	c0,0.6,0.2,0.8,0.6,0.8c0.8,0,6-0.4,8.8-0.4c3.4,0,9.2,0.4,9.8,0.4c0.6,0,0.8-0.2,0.8-0.8v-2.6c0-0.4-0.2-0.6-0.6-0.6h-2.8
	c-2.2,0-2.8-1.2-3-2.6v-11.4v-2.6c0.8-0.2,1.6-0.2,2.8-0.2c4.4,0,6,2.4,9.8,8.8c1,1.6,5.6,10,7.6,11.6c1.8-0.2,4.4-0.2,6.8-0.2
	c1,0,2.4,0.2,3.2,0.2c1,0.2,1.8,0.2,2.2,0.2s0.6-0.4,0.6-0.8v-2.2c0-0.6-0.2-1-0.6-1c-1.8,0-3.2-0.2-4.8-1.2c-2-1.4-4.4-4.6-5.8-6.8
	c-4.4-6-6.4-9.4-8.8-9.8v-0.2c8.4-3,12.4-7.2,12.4-14.4c0-2.4-1.4-5.4-3.6-7.6c-2.6-2.4-7.4-4-13.6-4c-1.4,0-10.6,0.4-11.8,0.4
	c-1.8,0-8.4-0.4-9-0.4c-0.4,0-0.6,0.2-0.6,0.6v2.6c0,0.4,0.2,0.8,0.4,0.8h1c3,0,3.8,1.2,4,3.2v10L264.7,430.8L264.7,430.8z
	 M272.7,412.8c0-1.8,1.6-2.4,3.2-2.4c4.2,0,7.2,1,10,2.8c1.8,1.2,3.4,4,3.4,7.2c0,2.8-1.8,11-13.4,11c-1.4,0-2.4-0.2-3.2-0.2V412.8
	L272.7,412.8z"/>
<path class="st1" d="M321.8,455.9c9.6,0,14.6-6.8,14.6-14.6c0-5.2-1.2-7.8-3.4-10c-2.6-2.8-6.6-3.8-11.4-5.6c-2-0.8-5.8-2.4-7.4-4.4
	c-1.2-1.4-1.6-3.6-1.6-5.2c0-1.8,1.6-6.4,7.4-6.4c3,0,5.4,1,7,2.8c2.2,2.6,3,6.2,3.6,7.4c0.2,0.4,0.4,0.6,0.6,0.4l1.8-0.4
	c0.4-0.2,0.4-0.4,0.4-0.6c-0.2-1.4-1-8.4-1-11.8c0-0.6-0.2-1-1-1c-0.8,0-1.2,0-1.4,0.4l-0.4,0.8c-0.2,0.6-0.8,0.4-1.8-0.2
	c-1.2-0.6-3.4-1.4-7.4-1.4c-3.8,0-7.2,1-9.8,3.2c-2.4,2-4.6,5.2-4.6,8.8c0,5.2,1.2,8.6,3.6,10.8c3.2,2.8,8.2,4.8,10.2,5.4
	c5.6,2.2,9.6,4.8,9.6,10.8c0,4.6-5,7.2-8.4,7.2c-3.8,0-7.4-2.2-9-5.2c-1.8-3.4-1.8-5.6-1.8-7.2c0-0.4-0.4-0.6-0.8-0.8l-1.8-0.2
	c-0.4,0-0.6,0.4-0.8,0.8c-0.2,1.6-0.8,10-1.2,13c-0.2,0.6,0.2,1,0.8,1.2c0.8,0.2,1.4,0,1.6-0.6l0.4-0.8c0.2-0.8,0.8-0.8,1.6-0.2
	C312.8,454.1,316.6,455.9,321.8,455.9L321.8,455.9z"/>
<path class="st1" d="M354.2,428c0-0.8,0.2-13.2,0.2-14.2c0.2-2.2,1-2.6,3.8-2.6h1.8c0.6,0,0.6-0.4,0.6-0.8v-2.6
	c0-0.4-0.2-0.6-0.6-0.6c-0.8,0-6.2,0.4-9.2,0.4c-5,0.2-11.4-0.4-12-0.4c-0.4,0-0.6,0.2-0.6,0.6v2.4c0,0.4,0.2,0.8,0.6,0.8h1.8
	c4.4,0,5.4,1,5.4,2.2c0,1.4,0.2,12,0.2,13.6v4.6c0,3.6-0.2,17-0.2,17.8c-0.2,1.8-1.8,2-4.6,2H339c-0.4,0-0.6,0.4-0.6,0.6v2.4
	c0,0.6,0.2,0.8,0.6,0.8c0.6,0,6.8-0.4,10.2-0.4c4.8,0,10.2,0.4,11,0.4c0.6,0,0.6-0.4,0.6-0.8v-2.4c0-0.4-0.2-0.6-0.6-0.6h-1.6
	c-3,0-4.4-1.4-4.6-3.8c-0.2-1.6-0.2-13.6-0.2-14.2V428H354.2z"/>
<path class="st1" d="M363.2,407c0.2,0,0,0,0.4,0c1.6,0.2,7.6,0.8,19.2,0.8h4.2c3.4,0,7.2-0.2,11.2-0.4c2,0,14.4,0,16.8,0
	c2.4,0,9.4-0.4,10.2-0.4c0.4,0,0.8,0.2,0.8,0.8v2.4c0,0.4-0.2,0.8-0.8,0.8h-1.6c-1.8,0-2,1.2-1.6,1.8c0.6,1,9.4,15,11,17.4
	c1.6-2.6,10.2-15.4,10.8-16.2c0.8-1.6,1-3-1.4-3h-1.6c-0.6,0-0.8-0.4-0.8-0.8v-2.4c0-0.4,0.2-0.8,0.8-0.8c0.6,0,5.8,0.4,9,0.4
	c1.8,0,5.6-0.4,6.2-0.4s0.8,0.2,0.8,0.8v2.2c0,0.6-0.2,0.8-0.6,0.8h-1c-1.6,0-2.8,0.4-3.8,0.8c-1.6,0.8-13.8,18-16.2,21.6v8.8
	c0.2,2.6,0,5.4,0.2,6.8c0.2,2.2,1.8,2.4,3.8,2.4h1.4c0.6,0,0.8,0.2,0.8,0.6v2.6c0,0.4-0.2,0.8-0.8,0.8c-0.6,0-6.6-0.4-10-0.4
	c-2.4,0-8.4,0.4-9,0.4s-0.8-0.2-0.8-0.8v-2.4c0-0.4,0.2-0.6,0.6-0.6h1.6c3.4,0,4-0.6,4-2.2c0.2-1,0.2-4.8,0.2-11v-3.8
	c-1-1.8-13.8-20.6-15.4-22.2c-0.8-0.8-2.4-1.2-3.4-1.2c0.6,2.8,1.4,6.6,1.8,8.4c0.2,0.4-0.2,0.6-0.6,0.8l-1.8,0.6
	c-0.6,0.2-1,0.2-1.2-0.4c-1.2-2.6-3-6-5.2-8c-2.6-1-10.4-1-12.2-1V429c0,11,0,19,0.2,19.8c0.2,1.6,0.8,2.8,2.4,2.8h4
	c0.6,0,0.8,0.4,0.8,1v2.2c0,0.4-0.2,0.6-0.8,0.6c-0.8,0-7.2-0.4-10.8-0.4c-3,0-9.8,0.4-10.6,0.4c-0.6,0-0.8-0.4-0.8-1v-2.2
	c0-0.6,0.2-0.8,0.6-0.8h4.2c1.6,0,2.4-0.8,2.4-1.6c0.4-4,0.4-9.6,0.4-15.8v-22.6c-2,0-7.8-0.2-11.8,1c-2.6,2-4.8,5.4-6.2,8
	c-0.2,0.4-0.6,0.8-1,0.6l-1.8-0.8c-0.6-0.2-0.6-0.6-0.4-1c0.6-2,2.4-8.4,3.4-11.6C363,407.2,363,407,363.2,407L363.2,407z"/>
<path class="st1" d="M188.1,408v2.4c0,0.4-0.4,0.6-0.8,0.6h-2.4c-1.4,0-3,0.2-3,1.6c0,2.4,1.8,6.6,4.6,15.4
	c0.8,2.6,4.8,14.8,5.4,16.4h0.4c0.6-2.2,5.8-15.2,6.4-16.8c4-11.6,5.4-14.4,5.4-15.6c0-0.6-0.4-1-2.2-1h-1.2c-0.4,0-0.6-0.2-0.6-0.8
	v-2.4c0-0.4,0.2-0.6,0.6-0.6c0.6,0,6,0.4,8.6,0.4c1.8,0,14.6,0,16,0l23.6-0.2c1,0,2.4-0.2,2.8-0.2c0.2,0,0.4,0.2,0.6,1.4
	c0.2,1,3.2,10,3.4,10.8c0.2,0.4,0.2,0.6-0.2,0.8l-1.6,0.8c-0.2,0.2-0.6,0.2-1-0.4c-0.2-0.4-5.2-6.2-7-7.8c-1.2-1.2-3-1.6-4-1.6
	l-11.2-0.2v17.8c0.6,0,6.8-0.4,7.6-0.6c2.8-0.8,3.8-2.2,3.8-5.4c0-0.4,0.2-0.6,0.6-0.6l2.4,0.2c0.4,0,0.8,0.2,0.6,0.6
	c-0.2,1-0.2,6.6-0.2,7.4c0,2.4,0.4,5.6,0.4,7c0,0.4-0.2,0.6-0.6,0.6l-2.2,0.2c-0.4,0-0.6,0-0.6-0.4c-0.6-2.6-1.2-4.4-3.8-5
	c-3.2-0.8-6.8-0.8-7.8-0.8v3.6c0,3.6,0.2,9.8,0.2,11.2c0,5,3,5.2,7.6,5.2c4.6,0,7.6-0.2,11.2-3c0.8-0.6,4.6-5.4,5.6-7
	c0.6-0.8,1-0.8,1.4-0.6l1.6,1c0.2,0.2,0.4,0.4,0.4,0.8l-3.8,11.2c-0.2,0.6-0.8,1-1.2,1c-0.8,0-6.4-0.4-28.4-0.4
	c-1.8,0-7.6,0.4-9,0.4c-0.6,0-0.6-0.4-0.6-0.8v-2.4c0-0.4,0.2-0.6,0.8-0.6h1c5,0,5.2-0.4,5.2-1.8v-15.8v-6.6
	c0-5.6-0.2-12.4-0.2-13.4c-0.4-2.2-1-2.6-5.2-2.6h-0.8h-0.2h-1.4c-2,0-3.4,0.6-4.4,1.6c-2,2-7.6,15.8-8.8,18.4
	c-1,2.2-9.6,22.8-10.4,24.2c-0.4,0.6-0.8,0.8-1.6,0.8c-0.8,0-1.4-0.8-1.6-1.6c-2.4-6.2-7.8-21.4-8.8-23.8l-0.8-2.4
	c-1.8-4.8-5-14.4-5.6-15.4c-0.8-1.2-1.6-2-3-2h-1c-0.4,0-0.6-0.4-0.6-0.6v-2.8c0-0.4,0.2-0.6,0.6-0.6c0.6,0,6.4,0.4,9,0.4
	s9-0.4,9.6-0.4C187.9,407.2,188.1,407.4,188.1,408L188.1,408z"/>
<path class="st1" d="M579,428c0-0.8,0.2-13.2,0.2-14.2c0.2-2.2,1-2.6,3.8-2.6h1.8c0.6,0,0.6-0.4,0.6-0.8v-2.6c0-0.4-0.2-0.6-0.6-0.6
	c-0.8,0-6.2,0.4-9.2,0.4c-5,0.2-11.4-0.4-12-0.4c-0.4,0-0.6,0.2-0.6,0.6v2.4c0,0.4,0.2,0.8,0.6,0.8h1.8c4.4,0,5.4,1,5.4,2.2
	c0,1.4,0.2,12,0.2,13.6v4.6c0,3.6-0.2,17-0.2,17.8c-0.2,1.8-1.8,2-4.6,2h-2.4c-0.4,0-0.6,0.4-0.6,0.6v2.4c0,0.6,0.2,0.8,0.6,0.8
	c0.6,0,6.8-0.4,10.2-0.4c4.8,0,10.2,0.4,11,0.4c0.6,0,0.6-0.4,0.6-0.8v-2.4c0-0.4-0.2-0.6-0.6-0.6h-1.6c-3,0-4.4-1.4-4.6-3.8
	c-0.2-1.6-0.2-13.6-0.2-14.2V428H579z"/>
<path class="st1" d="M594.8,430.8c-0.2,6.4,0,12.6-0.2,17.8c0,2.4-1.2,2.8-3.8,2.8h-1.2c-0.4,0-0.6,0.2-0.6,0.6v2.4
	c0,0.6,0.2,0.8,0.6,0.8c0.8,0,6-0.4,8.8-0.4c3.4,0,9.2,0.4,9.8,0.4s0.8-0.2,0.8-0.8v-2.6c0-0.4-0.2-0.6-0.6-0.6h-2.8
	c-2.2,0-2.8-1.2-3-2.6v-11.4v-2.6c0.8-0.2,1.6-0.2,2.8-0.2c4.4,0,6,2.4,9.8,8.8c1,1.6,5.6,10,7.6,11.6c1.8-0.2,4.4-0.2,6.8-0.2
	c1,0,2.4,0.2,3.2,0.2c1,0.2,1.8,0.2,2.2,0.2c0.4,0,0.6-0.4,0.6-0.8v-2.2c0-0.6-0.2-1-0.6-1c-1.8,0-3.2-0.2-4.8-1.2
	c-2-1.4-4.4-4.6-5.8-6.8c-4.4-6-6.4-9.4-8.8-9.8v-0.2c8.4-3,12.4-7.2,12.4-14.4c0-2.4-1.4-5.4-3.6-7.6c-2.6-2.4-7.4-4-13.6-4
	c-1.4,0-10.6,0.4-11.8,0.4c-1.8,0-8.4-0.4-9-0.4c-0.4,0-0.6,0.2-0.6,0.6v2.6c0,0.4,0.2,0.8,0.4,0.8h1c3,0,3.8,1.2,4,3.2v10
	L594.8,430.8L594.8,430.8z M603.4,412.8c0-1.8,1.6-2.4,3.2-2.4c4.2,0,7.2,1,10,2.8c1.8,1.2,3.4,4,3.4,7.2c0,2.8-1.8,11-13.4,11
	c-1.4,0-2.4-0.2-3.2-0.2V412.8L603.4,412.8z"/>
<path class="st1" d="M673.7,440.5c0-1.8,2-2.2,3-2.2h1.8c0.4,0,0.6-0.4,0.6-0.6v-2.6c0-0.4-0.2-0.6-0.6-0.6c-0.4,0-5.2,0.2-9,0.2
	c-5.6,0-10.8-0.2-11.4-0.2c-0.4,0-0.6,0.2-0.6,0.6v2.6c0,0.4,0.2,0.6,0.6,0.6h2.6c2.8,0,5.2,0.8,5.2,3.2v3.8c0,2.2-0.2,3.4-1.6,4.6
	c-1.6,1.4-5,2.4-8.8,2.4c-3,0-7.2-1.6-10-4.8c-4-4.4-6.4-10.2-6.4-18.4c0-4.8,2.4-10.2,5.4-13.8c3.8-4.2,8-5.4,11.2-5.4
	c4.8,0,7.8,2.2,10.6,5c2.6,2.6,4.4,5.8,5,7.4c0.4,0.8,0.6,1,0.8,0.8l2-0.6c0.4-0.2,0.4-0.4,0.4-0.8c-0.2-1.8-1.6-11.6-1.6-12.2
	c0-0.8-0.2-1.2-1.2-1.2c-0.8,0-1.2,0.4-1.4,0.8l-0.6,1c-0.2,0.4-0.6,0.4-1.4-0.4c-2-1.4-7-3.4-12-3.4c-7.4,0-13.8,2.2-18.8,6.4
	c-5,4.4-7.8,10.8-7.8,17.2c0,8.2,2.2,13.8,6.4,18.4c5,5.4,13.4,7.6,18.8,7.6c6.8,0,12.4-1.4,18-4.2c0.8-0.4,1.2-0.6,1.2-1.2
	c0-0.6-0.4-1.2-0.4-2.2V440.5L673.7,440.5z"/>
<path class="st1" d="M694.1,428c0-0.8,0.2-13.2,0.2-14.2c0.2-2.2,1-2.6,3.8-2.6h1.8c0.6,0,0.6-0.4,0.6-0.8v-2.6
	c0-0.4-0.2-0.6-0.6-0.6c-0.8,0-6.2,0.4-9.2,0.4c-5,0.2-11.4-0.4-12-0.4c-0.4,0-0.6,0.2-0.6,0.6v2.4c0,0.4,0.2,0.8,0.6,0.8h1.8
	c4.4,0,5.4,1,5.4,2.2c0,1.4,0.2,12,0.2,13.6v4.6c0,3.6-0.2,17-0.2,17.8c-0.2,1.8-1.8,2-4.6,2h-2.4c-0.4,0-0.6,0.4-0.6,0.6v2.4
	c0,0.6,0.2,0.8,0.6,0.8c0.6,0,6.8-0.4,10.2-0.4c4.8,0,10.2,0.4,11,0.4c0.6,0,0.6-0.4,0.6-0.8v-2.4c0-0.4-0.2-0.6-0.6-0.6h-1.6
	c-3,0-4.4-1.4-4.6-3.8c-0.2-1.6-0.2-13.6-0.2-14.2V428H694.1z"/>
<path class="st1" d="M750.7,429c0-4.4-0.2-11,0.4-15.8c0.2-1.4,0.8-2.2,3.4-2.2h1c0.4,0,0.6-0.4,0.6-0.8V408c0-0.6-0.2-0.8-0.8-0.8
	c-0.8,0-4.4,0.4-6.6,0.4c-3.4,0-7.8-0.4-8.6-0.4c-0.6,0-0.8,0.2-0.8,0.6v2.6c0,0.6,0.2,0.8,0.8,0.8h1.8c1.8,0,3.4,0.6,3.8,1.8
	c0.6,1.2,0.8,7.4,0.8,9.8c0.2,3.4,0.4,6.6,0.4,12.6v7h-0.4c-1.2-1.4-11-13.6-13-15.8c-2.2-2.6-14.2-17.8-14.6-18.2
	c-0.4-0.6-1-0.8-2.6-0.8c-1.2,0-3.4,0.2-5.2,0.2c-1.2,0-2.8-0.2-4.2-0.2s-2.6-0.2-2.8-0.2c-0.4,0-0.6,0.4-0.6,0.6v2.6
	c0,0.4,0.2,0.6,0.6,0.6h1c3,0,5.6,1.8,5.6,5.6v11c0,11.8-0.2,19.4-0.4,20.6c-0.4,2.4-2,3.2-3,3.2h-2.4c-0.4,0-0.4,0.2-0.4,0.4v2.8
	c0,0.6,0.2,0.8,0.4,0.8c0.8,0,5.6-0.4,7-0.4c3,0,7.2,0.4,8,0.4c0.6,0,0.6-0.2,0.6-0.6v-2.6c0-0.4,0-0.6-0.6-0.6h-2.2
	c-1,0-2.2-1.2-2.6-3.6c-0.2-1-0.6-11.4-0.6-17.8V416h0.2c1.6,1.8,10.2,13.2,12.8,16.2c1.2,1.4,5.6,6.8,10.6,12.6
	c4.4,5.2,7.8,9.4,8.6,10.2c0.4,0.4,1.4,1,2.4,1c1.2,0,1.6-1,1.6-2L750.7,429L750.7,429z"/>
<path class="st1" d="M795.8,433.1H810c-0.4-1.4-5.4-17.2-5.6-18c-0.2-0.6-0.4-1-0.6-1c-0.4,0-0.6,0.4-0.8,1.2
	C802.8,416.2,796.2,432.2,795.8,433.1L795.8,433.1z M774,428v5.2c0,0.6,0,12.8,0.2,14.2c0.2,2.4,1.4,3.8,4.6,3.8h1.2
	c1.8,0,3.4-1,4.4-2.2c0.8-0.8,6-13.4,8.6-18.8c0.8-1.4,7-15.8,7.6-17.6c0.2-0.6,0.8-1.8,0.2-2.2c-0.2-0.2-0.6-0.8-0.4-1
	c-0.2-0.2,0.2-0.6,1-0.8c2-0.4,5-2.2,5.8-3c0.2-0.4,0.6-0.8,1.2-0.8s0.8,0.4,1,1.2c1.4,4.2,6.8,19.2,8.2,23.4
	c1.6,5.2,6,17.6,6.8,18.8c1.4,1.8,3.2,2.8,5,2.8h2c0.4,0,0.6,0.4,0.6,0.6v2.2c0,0.4-0.2,1-0.8,1c-1.2,0-6.8-0.4-9.2-0.4
	c-2,0-8.2,0.4-9.6,0.4c-0.8,0-0.8-0.6-0.8-1v-2.2c0-0.4,0.2-0.6,0.6-0.6h1.6c1.2,0,1.6-1,1.6-1.8c-0.4-2.2-3.2-10.6-4-13h-17
	c-0.4,1.2-3.8,10-4.2,11.2c-0.6,2.2-0.4,3.4,1.8,3.4h2.6c0.6,0,0.8,0.4,0.8,0.8v2.4c0,0.4-0.2,0.8-0.6,0.8c-0.8,0-6.4-0.4-8-0.4
	c-1.4,0-14.2,0-17.4,0c-3.6,0-9.6,0.4-10.2,0.4c-0.4,0-0.6-0.4-0.6-0.8v-2.4c0-0.4,0.2-0.6,0.6-0.6h2.4c2.6,0,4.4-0.2,4.6-2
	c0.2-1,0.2-14.2,0.2-17.8v-4.6c0-1.6-0.2-12.2-0.2-13.6c0-1.2-1-2.2-5.4-2.2h-2.4c-0.6,0-0.6-0.4-0.6-0.8v-2.2
	c0-0.4,0.2-0.6,0.6-0.6c0.6,0,7.2,0.4,12,0.4c3,0,8.4-0.4,9.2-0.4c0.4,0,0.6,0.2,0.6,0.6v2.6c0,0.4-0.2,0.8-0.6,0.8h-1.8
	c-2.8,0-3.8,0.4-3.8,2.6C774,414.6,774,427.2,774,428L774,428z"/>
</svg>
